<svg width="282" height="86" viewBox="0 0 282 86" fill="none" xmlns="http://www.w3.org/2000/svg">
<g clip-path="url(#clip0_49_3029)">
<path d="M122.792 36.2046C122.792 39.8053 118.577 41.9908 114.039 41.9908C111.112 41.9908 107.356 41.119 107.356 41.119C107.356 41.119 106.85 40.91 106.674 40.6294C106.397 40.1696 106.421 38.0079 106.421 37.6437C106.421 37.1779 106.298 35.2491 106.85 34.9446C107.126 34.7893 107.655 34.9983 107.655 34.9983C107.655 34.9983 110.254 36.4912 112.223 36.4912C112.828 36.4912 113.534 36.2344 113.534 35.7209C113.534 34.849 111.923 34.5923 110.383 33.816C108.267 32.7591 106.78 31.529 106.78 29.2121C106.78 24.6081 112.728 23.581 117.096 23.581C118.43 23.581 120.652 23.9154 120.652 23.9154C120.652 23.9154 120.958 23.9154 121.205 24.1185C121.534 24.3752 121.511 26.513 121.511 26.8175C121.511 27.1519 121.534 29.3673 121.158 29.648C120.982 29.7793 120.705 29.6241 120.705 29.6241C120.705 29.6241 119.265 29.1643 118.513 29.1643C117.402 29.1643 116.973 29.4987 116.973 29.9585C116.973 30.5496 118.131 30.9378 119.265 31.4513C121.381 32.4008 122.798 33.9713 122.798 36.2105" fill="#231F20"/>
<path d="M142.085 32.4545C142.085 35.6194 141.932 40.504 141.932 40.504C141.932 40.504 141.932 40.9638 141.808 41.1728C141.679 41.3758 141.179 41.4295 141.179 41.4295C141.179 41.4295 139.945 41.531 139.01 41.531C138.305 41.531 136.941 41.4295 136.941 41.4295C136.941 41.4295 136.512 41.4056 136.259 41.3041C136.006 41.2026 135.677 40.8921 135.677 40.8921C135.677 40.8921 134.596 39.7874 133.837 39.041C132.903 38.1393 131.745 37.0107 131.745 37.0107C131.745 37.0107 131.315 36.6226 130.963 36.6226C130.51 36.6226 130.557 37.2675 130.557 37.2675C130.557 37.2675 130.504 38.2468 130.504 38.8618C130.504 39.5306 130.557 40.5876 130.557 40.5876C130.557 40.5876 130.61 41.0474 130.434 41.2563C130.234 41.4892 129.652 41.4355 129.652 41.4355C129.652 41.4355 128.288 41.5131 127.383 41.5131C126.478 41.5131 125.014 41.4355 125.014 41.4355C125.014 41.4355 124.432 41.4355 124.232 41.2026C124.032 40.9697 124.056 40.3786 124.056 40.3786C124.056 40.3786 123.956 35.5955 123.956 32.5321C123.956 29.4688 124.056 24.8171 124.056 24.8171C124.056 24.8171 124.032 24.1483 124.232 23.9453C124.385 23.79 124.961 23.79 124.961 23.79C124.961 23.79 126.525 23.6885 127.536 23.6885C128.547 23.6885 129.981 23.79 129.981 23.79C129.981 23.79 130.281 23.7661 130.51 23.9154C130.739 24.0707 130.886 24.2737 130.886 24.2737C130.886 24.2737 132.297 25.8681 133.208 26.8474C133.937 27.6475 135.001 28.7523 135.001 28.7523C135.001 28.7523 135.307 29.1105 135.607 29.1105C135.859 29.1105 135.883 28.6746 135.883 28.6746C135.883 28.6746 135.959 27.337 135.959 26.4652C135.959 25.7725 135.883 24.6917 135.883 24.6917C135.883 24.6917 135.83 24.1244 136.036 23.9453C136.212 23.79 136.665 23.79 136.665 23.79C136.665 23.79 138.028 23.7124 138.887 23.7124C139.821 23.7124 141.256 23.79 141.256 23.79C141.256 23.79 141.708 23.79 141.885 23.9453C142.085 24.1244 142.061 24.638 142.061 24.638C142.061 24.638 142.085 29.3972 142.085 32.4605" fill="#231F20"/>
<path d="M155.981 32.556C155.981 31.2722 154.923 30.3168 153.635 30.3168C152.348 30.3168 151.366 31.3438 151.366 32.6337C151.366 33.8399 152.454 34.7177 153.635 34.7177C154.817 34.7177 155.981 33.816 155.981 32.556ZM164.099 32.4008C164.099 37.9303 159.032 41.8177 153.606 41.8177C148.18 41.8177 143.137 37.8825 143.137 32.4784C143.137 27.0743 148.586 23.5273 153.982 23.5273C159.102 23.5273 164.093 27.1041 164.093 32.4008" fill="#231F20"/>
<path d="M194.29 25.0978C194.29 25.0978 193.055 29.9047 192.068 33.0696C191.162 36.0015 189.522 40.4024 189.522 40.4024C189.522 40.4024 189.37 40.9697 189.093 41.2026C188.817 41.4355 188.212 41.4594 188.212 41.4594C188.212 41.4594 185.79 41.5609 184.732 41.5609C183.673 41.5609 181.275 41.4355 181.275 41.4355C181.275 41.4355 180.67 41.4116 180.44 41.1787C180.064 40.8443 179.682 39.7874 179.535 39.4828C179.482 39.3574 179.259 38.5334 178.93 38.5334C178.624 38.5334 178.448 39.2798 178.401 39.5366C178.224 40.0262 178.048 40.8204 177.619 41.2086C177.29 41.5191 176.761 41.4653 176.761 41.4653C176.761 41.4653 174.591 41.5669 173.533 41.5669C172.475 41.5669 170.077 41.4653 170.077 41.4653C170.077 41.4653 169.495 41.4892 169.219 41.1548C169.042 40.9458 168.866 40.5398 168.866 40.5398C168.866 40.5398 167.15 36.4494 166.015 33.2368C164.804 29.7913 163.869 25.9039 163.869 25.9039C163.869 25.9039 163.593 25.0321 163.77 24.6678C163.893 24.4111 164.375 24.2797 164.375 24.2797C164.375 24.2797 165.939 23.9453 167.984 23.7124C169.924 23.4795 171.341 23.4317 171.341 23.4317C171.341 23.4317 171.87 23.4079 172.146 23.6109C172.322 23.7363 172.375 23.999 172.399 23.999C172.399 23.999 172.904 26.4413 173.357 27.9581C173.633 28.8836 174.392 31.2005 174.392 31.2005C174.515 31.6126 174.697 32.0246 175.044 32.0246C175.32 32.0246 175.849 30.0421 175.926 29.7853C176.102 29.2957 176.102 29.2718 176.126 29.0628C175.773 27.8028 175.191 25.6173 175.191 25.6173C175.191 25.6173 175.038 25.05 175.191 24.6917C175.291 24.4827 175.567 24.3334 175.72 24.3036C175.72 24.3036 177.766 23.8915 179 23.7363C180.487 23.5571 182.327 23.4019 182.327 23.4019C182.327 23.4019 182.88 23.3243 183.133 23.5571C183.286 23.6885 183.362 23.9692 183.362 23.9692C183.362 23.9692 184.067 26.7996 184.52 28.2626C184.973 29.7256 185.325 30.9378 185.325 30.9378C185.455 31.3259 185.631 31.9171 185.954 31.9171C186.307 31.9171 186.483 31.302 186.583 30.89C186.583 30.89 187.012 29.2718 187.242 28.2387C187.571 26.7996 188.1 24.0229 188.1 24.0229C188.153 23.8199 188.2 23.6885 188.329 23.5571C188.582 23.3243 188.935 23.4019 188.935 23.4019C188.935 23.4019 189.869 23.4795 191.127 23.6348C192.561 23.8139 193.526 23.9692 193.526 23.9692C193.526 23.9692 194.055 24.0468 194.231 24.2498C194.46 24.5066 194.284 25.0978 194.284 25.0978" fill="#231F20"/>
<path d="M209.344 26.7936C209.344 27.0504 209.421 29.1583 209.191 29.4449C208.992 29.7017 208.51 29.6778 208.51 29.6778H204.324C204.324 29.6778 203.742 29.6778 203.595 29.8032C203.419 29.9585 203.395 30.9617 203.595 31.1647C203.719 31.2901 204.301 31.2901 204.301 31.2901H208.11C208.11 31.2901 208.692 31.2662 208.945 31.523C209.097 31.6782 209.174 33.5294 208.945 33.8399C208.792 34.0429 208.063 34.019 208.063 34.019L204.354 33.9951C204.354 33.9951 203.772 33.9712 203.595 34.1504C203.395 34.3534 203.442 34.7654 203.442 34.7654L203.519 40.4263C203.519 40.4263 203.572 40.9399 203.342 41.1489C203.066 41.3818 202.461 41.4295 202.461 41.4295C202.461 41.4295 201.579 41.5848 199.586 41.5848C197.088 41.5848 196.259 41.4833 196.259 41.4833C196.259 41.4833 195.754 41.5072 195.577 41.2504C195.424 41.0175 195.424 40.4801 195.424 40.4801C195.424 40.4801 195.248 35.0521 195.248 32.0723C195.248 28.0835 195.371 24.7932 195.371 24.7932C195.371 24.7932 195.348 24.3036 195.524 24.0707C195.701 23.8139 195.953 23.79 196.253 23.79C196.253 23.79 200.215 23.6646 202.708 23.6646C204.977 23.6646 208.31 23.7661 208.31 23.7661C208.31 23.7661 208.892 23.7661 209.115 24.0229C209.368 24.3334 209.344 26.4951 209.344 26.7996" fill="#231F20"/>
<path d="M225.586 38.4199C225.586 38.7006 225.609 40.8622 225.409 41.1727C225.21 41.4833 224.475 41.4534 224.475 41.4534C224.475 41.4534 220.366 41.5788 218.097 41.5788C215.599 41.5788 211.719 41.4235 211.719 41.4235C211.719 41.4235 211.213 41.4235 211.013 41.113C210.914 40.9578 210.884 40.4204 210.884 40.4204C210.884 40.4204 210.784 35.4283 210.784 32.4187C210.784 29.4091 210.908 24.7514 210.908 24.7514C210.908 24.7514 210.855 24.1602 211.137 23.9274C211.366 23.7721 211.642 23.7721 212.042 23.7721C212.042 23.7721 213.782 23.6945 214.893 23.6945C216.004 23.6945 217.744 23.7721 217.744 23.7721C218.197 23.7721 218.402 23.796 218.702 24.1065C218.932 24.3394 218.932 24.7216 218.932 25.0858C218.932 25.0858 218.879 27.9163 218.879 29.7136C218.879 31.511 218.932 34.3952 218.932 34.3952C218.932 34.3952 218.932 34.9625 219.055 35.0879C219.178 35.2193 219.784 35.2193 219.784 35.2193C219.784 35.2193 221.148 35.273 222.006 35.273C222.988 35.273 224.504 35.2193 224.504 35.2193C224.504 35.2193 225.133 35.2193 225.339 35.4522C225.615 35.7627 225.592 38.1273 225.592 38.408" fill="#231F20"/>
<path d="M235.802 36.6942C235.926 36.4852 235.879 36.2583 235.702 35.7925L234.974 33.9414C234.85 33.607 234.674 33.1412 234.321 33.1412C233.968 33.1412 233.792 33.6309 233.692 34.0429L233.187 35.894C233.087 36.2284 233.087 36.5091 233.187 36.6942C233.386 37.0525 234.168 37.0823 234.497 37.0823C234.803 37.0823 235.608 37.0286 235.808 36.6942M245.537 40.8861C245.437 41.0892 245.108 41.2444 244.955 41.2743C244.955 41.2743 242.862 41.7341 241.728 41.8893C240.693 42.0147 238.271 42.2476 238.271 42.2237C237.895 42.2775 237.613 42.2476 237.437 42.1222C236.984 41.7639 237.06 40.916 236.678 40.5816C236.502 40.4263 236.273 40.4801 236.273 40.4801C236.273 40.4801 235.414 40.6592 234.656 40.6592C234.051 40.6592 233.269 40.4562 233.269 40.4562C233.269 40.4562 233.016 40.4024 232.816 40.5338C232.487 40.7667 232.511 41.7699 232.234 41.9968C232.005 42.176 231.629 42.1222 231.629 42.1222C231.629 42.1222 230.012 42.0207 229.16 41.9192C228.225 41.7938 226.791 41.531 226.791 41.531C226.791 41.531 226.285 41.4534 226.133 41.2743C225.933 41.0414 225.933 40.7846 226.033 40.4263C226.033 40.4263 227.32 35.4104 228.278 32.2455C229.26 29.0329 230.8 24.841 230.8 24.8111C230.929 24.4767 231 24.1662 231.253 23.9871C231.505 23.8079 231.811 23.7781 232.111 23.7781C232.111 23.7781 234.533 23.6766 235.591 23.6766C236.649 23.6766 239.047 23.7781 239.047 23.7781C239.376 23.7781 239.6 23.7781 239.853 24.011C240.052 24.1901 240.258 24.7037 240.258 24.7037C240.258 24.7037 242.022 28.5612 243.209 32.0067C244.397 35.4522 245.478 39.9546 245.478 39.9546C245.478 39.9546 245.678 40.5219 245.531 40.8802" fill="#231F20"/>
<path d="M266.217 40.8622C266.217 41.1429 265.788 41.3519 265.788 41.3519C265.788 41.3519 264.4 42.0983 263.213 42.4805C261.596 43.0179 260.315 43.3045 260.315 43.3045C260.315 43.3045 259.786 43.406 259.51 43.2807C259.233 43.1493 259.157 42.9701 259.034 42.6656C259.034 42.6656 258.475 41.2743 258.022 40.1457C257.54 38.9394 256.759 37.0823 256.759 37.0823C256.582 36.6464 255.877 36.8733 255.571 37.0823C255.089 37.3929 254.913 37.4406 254.913 38.1393V40.4562C254.913 40.7368 254.889 40.916 254.713 41.1489C254.484 41.4295 253.855 41.4594 253.855 41.4594C253.855 41.4594 252.168 41.537 251.08 41.537C249.464 41.537 247.447 41.4355 247.447 41.4355C247.447 41.4355 246.895 41.4355 246.742 41.125C246.619 40.8682 246.619 40.4323 246.619 40.4323C246.619 40.4323 246.495 35.7507 246.495 32.7411C246.495 29.7316 246.648 24.7693 246.648 24.7693C246.648 24.7693 246.624 24.1782 246.954 23.9751C247.23 23.796 247.965 23.796 247.965 23.796C247.965 23.796 249.681 23.6945 250.786 23.6945C251.891 23.6945 253.608 23.796 253.608 23.796C253.608 23.796 254.213 23.7721 254.49 24.1304C254.689 24.3872 254.666 25.1336 254.666 25.1336L254.642 27.0385C254.642 27.349 254.719 27.6296 254.972 27.7849C255.248 27.9401 255.83 27.4505 256.235 27.0385L259.463 23.7184C259.463 23.7184 259.945 23.1272 260.168 23.1272C260.444 23.1272 260.721 23.2825 260.721 23.2825C260.721 23.2825 261.832 23.8199 263.013 24.7514C264.453 25.8561 265.412 26.9907 265.412 26.9907C265.412 26.9907 265.817 27.4027 265.817 27.6356C265.817 27.8924 265.694 28.1014 265.511 28.2805C265.511 28.2805 264.653 29.2359 264.001 29.9286C263.519 30.4422 262.613 31.3677 262.613 31.3677C262.613 31.3677 262.161 31.726 262.161 32.0126C262.161 32.1141 262.337 32.5023 262.437 32.7053C262.437 32.7053 263.495 34.867 264.13 36.2284C264.859 37.7989 266.023 40.295 266.023 40.295C266.023 40.295 266.223 40.6055 266.223 40.8861" fill="#231F20"/>
<path d="M282 38.623C282 39.0111 282 40.7846 281.747 41.1668C281.547 41.4773 280.865 41.4474 280.865 41.4474C280.865 41.4474 276.98 41.6027 274.711 41.6027C272.213 41.6027 268.333 41.4235 268.333 41.4235C268.333 41.4235 267.827 41.4235 267.651 41.1429C267.498 40.91 267.498 40.707 267.498 40.4204C267.498 40.4204 267.322 35.0939 267.322 32.0843C267.322 27.9939 267.475 24.8052 267.475 24.8052C267.475 24.8052 267.475 24.3454 267.627 24.1125C267.804 23.8557 268.033 23.802 268.333 23.802C268.333 23.802 272.218 23.6228 274.711 23.6228C276.98 23.6228 280.283 23.7781 280.283 23.7781C280.283 23.7781 280.942 23.7542 281.165 24.0349C281.418 24.3454 281.394 26.507 281.394 26.8115C281.394 27.0146 281.447 29.1523 281.271 29.4091C281.095 29.6659 280.666 29.6898 280.366 29.6898H276.41C276.41 29.6898 275.804 29.6898 275.651 29.8211C275.498 29.9764 275.475 31.0035 275.675 31.2065C275.798 31.3319 276.38 31.308 276.38 31.308H280.136C280.436 31.308 280.789 31.308 280.995 31.5648C281.171 31.7678 281.247 33.3681 281.048 33.6727C280.871 33.9294 280.442 33.9832 280.142 33.9832H276.41C276.41 33.9832 275.751 33.9593 275.628 34.0847C275.451 34.24 275.451 35.1655 275.628 35.3447C275.751 35.4701 276.41 35.4462 276.41 35.4462H280.948C281.253 35.4462 281.606 35.4462 281.806 35.703C282.035 35.9836 282.006 38.3244 282.006 38.611" fill="#231F20"/>
<path d="M112.94 61.6905C113.022 61.5531 112.987 61.3979 112.875 61.0933L112.387 59.8632C112.305 59.6423 112.187 59.3318 111.952 59.3318C111.717 59.3318 111.6 59.6542 111.535 59.9289L111.2 61.159C111.135 61.38 111.135 61.571 111.2 61.6905C111.335 61.9293 111.852 61.9472 112.07 61.9472C112.27 61.9472 112.805 61.9114 112.94 61.6905ZM119.406 64.4731C119.341 64.6105 119.124 64.712 119.024 64.7299C119.024 64.7299 117.637 65.0344 116.878 65.1419C116.191 65.2255 114.586 65.3808 114.586 65.3629C114.333 65.3987 114.151 65.3808 114.033 65.2912C113.733 65.0524 113.781 64.4911 113.528 64.2641C113.41 64.1626 113.257 64.1925 113.257 64.1925C113.257 64.1925 112.687 64.3119 112.188 64.3119C111.788 64.3119 111.265 64.1746 111.265 64.1746C111.265 64.1746 111.094 64.1387 110.965 64.2283C110.747 64.3836 110.765 65.0464 110.583 65.2016C110.43 65.3211 110.183 65.2852 110.183 65.2852C110.183 65.2852 109.113 65.2196 108.543 65.1479C107.926 65.0643 106.968 64.8911 106.968 64.8911C106.968 64.8911 106.632 64.8374 106.533 64.718C106.397 64.5627 106.397 64.3955 106.468 64.1567C106.468 64.1567 107.32 60.8246 107.961 58.7227C108.613 56.5849 109.636 53.8023 109.636 53.7843C109.719 53.5634 109.772 53.3604 109.936 53.2409C110.107 53.1215 110.306 53.1036 110.506 53.1036C110.506 53.1036 112.111 53.0379 112.816 53.0379C113.522 53.0379 115.109 53.1036 115.109 53.1036C115.327 53.1036 115.479 53.1036 115.644 53.2589C115.779 53.3783 115.914 53.7187 115.914 53.7187C115.914 53.7187 117.084 56.2804 117.872 58.5674C118.66 60.8545 119.377 63.8461 119.377 63.8461C119.377 63.8461 119.512 64.2223 119.412 64.4612" fill="#231F20"/>
<path d="M129.423 62.2339C129.423 62.5444 129.405 64.282 129.24 64.5567C129.141 64.712 128.888 64.7777 128.888 64.7777C128.888 64.7777 127.63 65.1001 126.407 65.1001C121.616 65.1001 119.153 62.6877 119.153 59.069C119.153 55.0562 122.169 52.9901 126.607 52.9722C127.647 52.9722 128.717 53.1633 128.717 53.1633C128.717 53.1633 129.07 53.235 129.188 53.4022C129.405 53.6768 129.405 55.1637 129.405 55.4324C129.405 55.6176 129.423 57.4806 129.188 57.6538C129.017 57.7732 128.788 57.6717 128.788 57.6717C128.788 57.6717 127.647 57.3493 127.077 57.3493C125.872 57.3493 124.785 57.8449 124.785 58.9556C124.785 60.0662 126.06 60.4603 127.13 60.4603C127.683 60.4603 128.706 60.1857 128.706 60.1857C128.706 60.1857 128.958 60.0842 129.158 60.1678C129.393 60.2693 129.429 61.2605 129.429 62.2339" fill="#231F20"/>
<path d="M136.541 61.6905C136.624 61.5531 136.594 61.3979 136.477 61.0933L135.989 59.8632C135.906 59.6423 135.789 59.3318 135.554 59.3318C135.319 59.3318 135.201 59.6542 135.136 59.9289L134.801 61.159C134.737 61.38 134.737 61.571 134.801 61.6905C134.936 61.9293 135.454 61.9472 135.671 61.9472C135.871 61.9472 136.406 61.9114 136.541 61.6905ZM143.007 64.4731C142.943 64.6105 142.725 64.712 142.625 64.7299C142.625 64.7299 141.238 65.0344 140.48 65.1419C139.792 65.2255 138.187 65.3808 138.187 65.3629C137.934 65.3987 137.752 65.3808 137.635 65.2912C137.335 65.0524 137.382 64.4911 137.129 64.2641C137.011 64.1626 136.859 64.1925 136.859 64.1925C136.859 64.1925 136.288 64.3119 135.789 64.3119C135.389 64.3119 134.866 64.1746 134.866 64.1746C134.866 64.1746 134.695 64.1387 134.566 64.2283C134.349 64.3836 134.366 65.0464 134.184 65.2016C134.031 65.3211 133.784 65.2852 133.784 65.2852C133.784 65.2852 132.714 65.2196 132.144 65.1479C131.527 65.0643 130.569 64.8911 130.569 64.8911C130.569 64.8911 130.234 64.8374 130.134 64.718C129.999 64.5627 129.999 64.3955 130.069 64.1567C130.069 64.1567 130.922 60.8246 131.562 58.7227C132.215 56.5849 133.238 53.8023 133.238 53.7843C133.32 53.5634 133.373 53.3604 133.537 53.2409C133.708 53.1215 133.908 53.1036 134.108 53.1036C134.108 53.1036 135.712 53.0379 136.418 53.0379C137.123 53.0379 138.71 53.1036 138.71 53.1036C138.928 53.1036 139.081 53.1036 139.245 53.2589C139.38 53.3783 139.516 53.7187 139.516 53.7187C139.516 53.7187 140.685 56.2804 141.473 58.5674C142.261 60.8545 142.978 63.8461 142.978 63.8461C142.978 63.8461 143.113 64.2223 143.013 64.4612" fill="#231F20"/>
<path d="M150.879 58.9556C150.879 57.4329 149.168 57.5702 149.168 57.5702C149.168 57.5702 148.933 57.5881 148.85 57.6896C148.751 57.8091 148.768 57.9822 148.768 58.239V59.9647C148.768 60.1558 148.768 60.3588 148.903 60.4783C149.003 60.5619 149.256 60.5619 149.256 60.5619C149.256 60.5619 150.879 60.6634 150.879 58.9556ZM155.787 58.9376C155.787 63.4998 152.472 64.9329 148.351 64.9329C145.905 64.9329 144.565 64.7956 144.565 64.7956C144.565 64.7956 144.113 64.7956 143.948 64.6582C143.778 64.5209 143.73 64.3656 143.73 64.1089C143.73 64.1089 143.648 61.0336 143.648 58.9496C143.648 56.8656 143.73 53.653 143.73 53.653C143.73 53.4977 143.766 53.3126 143.901 53.2111C144.118 53.0379 147.922 53.008 147.957 53.008C153.03 53.008 155.799 54.7995 155.799 58.9376" fill="#231F20"/>
<path d="M166.238 62.9683C166.238 63.2251 166.238 64.4015 166.068 64.6582C165.933 64.8613 165.48 64.8434 165.48 64.8434C165.48 64.8434 162.9 64.9449 161.395 64.9449C159.737 64.9449 157.156 64.8254 157.156 64.8254C157.156 64.8254 156.821 64.8254 156.704 64.6344C156.604 64.4791 156.604 64.3418 156.604 64.1566C156.604 64.1566 156.486 60.6216 156.486 58.6212C156.486 55.9042 156.586 53.7843 156.586 53.7843C156.586 53.7843 156.586 53.4798 156.686 53.3245C156.804 53.1514 156.957 53.1215 157.156 53.1215C157.156 53.1215 159.737 53.0021 161.395 53.0021C162.9 53.0021 165.098 53.1036 165.098 53.1036C165.098 53.1036 165.533 53.0857 165.686 53.2768C165.856 53.4798 165.839 54.9189 165.839 55.1219C165.839 55.2593 165.874 56.6745 165.756 56.8477C165.639 57.0208 165.357 57.0387 165.151 57.0387H162.523C162.523 57.0387 162.124 57.0387 162.018 57.1223C161.918 57.2239 161.9 57.9106 162.035 58.0419C162.118 58.1255 162.506 58.1136 162.506 58.1136H165.004C165.204 58.1136 165.439 58.1136 165.574 58.2868C165.692 58.4241 165.739 59.481 165.609 59.69C165.492 59.8632 165.21 59.8931 165.01 59.8931H162.529C162.529 59.8931 162.094 59.8752 162.012 59.9588C161.894 60.0603 161.894 60.6753 162.012 60.7947C162.094 60.8783 162.529 60.8604 162.529 60.8604H165.545C165.745 60.8604 165.98 60.8604 166.115 61.0336C166.268 61.2247 166.25 62.7773 166.25 62.9624" fill="#231F20"/>
<path d="M183.238 58.8361C183.238 61.0217 183.186 64.2164 183.186 64.2164C183.186 64.2164 183.186 64.5567 183.05 64.6941C182.933 64.8135 182.633 64.8135 182.633 64.8135C182.633 64.8135 181.446 64.915 180.676 64.915C179.905 64.915 178.648 64.8314 178.648 64.8314C178.648 64.8314 178.077 64.8314 177.942 64.7299C177.778 64.5926 177.789 64.2701 177.789 64.2701V62.9743C177.789 62.9743 177.836 62.5324 177.589 62.413C177.337 62.2936 177.154 62.5683 176.984 62.7892L175.426 64.8911C175.426 64.8911 175.038 65.4405 174.691 65.4405C174.345 65.4405 173.968 64.927 173.968 64.927C173.281 63.87 172.981 63.3744 172.563 62.6877C172.528 62.6041 172.364 62.3951 172.111 62.3951C171.84 62.3951 171.893 62.837 171.893 62.837L171.911 64.2701C171.911 64.2701 171.946 64.5448 171.793 64.6821C171.594 64.8553 171.106 64.8374 171.106 64.8374C171.106 64.8374 170.165 64.8911 169.566 64.8911C168.895 64.8911 167.843 64.8254 167.843 64.8254C167.843 64.8254 167.473 64.8254 167.355 64.7239C167.173 64.5687 167.191 64.2641 167.191 64.2641C167.191 64.2641 167.108 61.0336 167.108 58.9675C167.108 56.9014 167.161 53.8082 167.161 53.8082C167.161 53.8082 167.144 53.432 167.297 53.2768C167.449 53.1215 167.831 53.1215 167.831 53.1215C167.831 53.1215 169.107 53.0558 169.906 53.0558C170.641 53.0558 171.817 53.1215 171.817 53.1215C171.817 53.1215 172.105 53.1753 172.234 53.2589C172.369 53.3425 172.516 53.5813 172.516 53.5813C172.516 53.5813 173.204 54.5188 173.639 55.1219C174.092 55.737 174.762 56.6924 174.762 56.6924C174.762 56.6924 175.044 57.0865 175.297 57.0865C175.567 57.0865 175.832 56.6267 175.832 56.6267C176.484 55.7728 177.272 54.7159 178.007 53.5873C178.007 53.5873 178.207 53.2947 178.377 53.2111C178.542 53.1275 178.83 53.1275 178.83 53.1275C178.83 53.1275 179.97 53.0917 180.705 53.0917C181.31 53.0917 182.263 53.1275 182.263 53.1275C182.263 53.1275 182.78 53.1454 182.997 53.3484C183.197 53.5335 183.18 53.9814 183.18 53.9814C183.18 53.9814 183.233 56.9552 183.233 58.8481" fill="#231F20"/>
<path d="M196.988 53.9515C197.053 54.2919 195.848 56.1908 195.06 57.3015C194.272 58.4122 193.285 59.6781 193.032 60.0364C192.967 60.12 192.967 61.4038 192.967 62.2577C192.967 63.2132 193.032 64.4433 192.885 64.6642C192.72 64.9031 191.245 64.9389 190.204 64.9389C189.164 64.9389 187.806 64.921 187.641 64.6642C187.477 64.3895 187.489 63.1953 187.489 62.2398C187.489 61.2844 187.489 60.0364 187.424 59.8453C187.359 59.6542 186.383 58.4301 185.713 57.403C184.879 56.1251 183.65 54.2441 183.838 53.9038C184.02 53.5813 185.361 53.3425 186.366 53.1514C187.371 52.9603 188.711 52.7931 188.964 52.9304C189.129 53.014 189.364 53.647 189.599 54.1068C189.899 54.686 190.234 55.4563 190.569 55.4563C190.922 55.4563 191.321 54.6382 191.609 54.0232C191.862 53.4917 192.097 52.9125 192.344 52.7931C192.526 52.7095 193.884 52.9304 194.907 53.1335C195.759 53.3066 196.9 53.5455 196.982 53.9515" fill="#231F20"/>
<path d="M48.8545 68.2291C47.4319 66.8497 45.7508 66.1212 44.0519 66.0316C43.8227 65.954 43.5581 65.954 43.2819 66.0316C41.583 66.1391 39.896 66.8856 38.4617 68.2888C36.6394 70.0683 34.9347 71.9851 33.1771 73.8303C31.2549 75.8486 29.3268 77.8669 27.4046 79.8853C26.6345 80.6914 25.788 82.035 26.1995 83.2233C26.5698 84.2922 27.7631 84.1608 28.445 83.4502C31.925 79.8017 35.4049 76.1472 38.8849 72.4987C39.5844 71.7642 40.2369 71.0894 41.2245 70.8088C41.2891 75.4545 41.3538 80.1002 41.4126 84.752C41.4302 85.8806 42.3531 86.2986 43.276 85.8149C44.3223 85.2655 45.0277 83.8145 45.0101 82.6441C44.9572 78.9119 44.9102 75.1738 44.8572 71.4417C45.1806 71.6507 45.4862 71.8896 45.7743 72.1583C47.7141 73.9796 49.5599 75.9143 51.4468 77.7833C53.2691 79.5867 55.0855 81.396 56.9078 83.1994C58.5655 84.8415 61.3459 80.6377 59.9762 79.2762C56.267 75.5978 52.5931 71.8717 48.8427 68.2351" fill="#EC008C"/>
<path d="M58.1952 67.3215C56.9784 67.841 56.3317 69.095 56.755 70.128C57.1782 71.1611 58.5067 71.5731 59.7235 71.0536C60.9403 70.5341 61.587 69.2801 61.1637 68.247C60.7405 67.214 59.412 66.802 58.1952 67.3215Z" fill="#EC008C"/>
<path d="M23.4369 55.0324C22.4964 53.5873 21.021 52.4706 19.1105 51.9033C16.6886 51.1868 14.208 50.6374 11.7626 50.0044C9.088 49.3118 6.41337 48.625 3.73874 47.9324C2.66889 47.6577 1.10526 47.5801 0.299929 48.5355C-0.423103 49.3954 0.282294 50.3866 1.23458 50.6314C6.07243 51.8795 10.9162 53.1275 15.754 54.3815C16.7239 54.6323 17.6292 54.8711 18.364 55.5996C14.449 57.9762 10.5341 60.3588 6.61911 62.7354C5.66682 63.3147 5.77851 64.3418 6.6485 64.915C7.63606 65.5659 9.2232 65.4644 10.2049 64.8672C13.3498 62.9564 16.4947 61.0455 19.6396 59.1347C19.6278 59.5228 19.5749 59.9169 19.4867 60.3051C18.9106 62.9265 18.1935 65.5241 17.5469 68.1276C16.9238 70.6356 16.3007 73.1496 15.6776 75.6575C15.1133 77.9446 20.0746 78.2969 20.5448 76.4099C21.8145 71.2925 23.143 66.1869 24.354 61.0575C24.8125 59.1108 24.595 57.2657 23.8249 55.7191C23.772 55.4802 23.6427 55.2413 23.4369 55.0383" fill="#EC008C"/>
<path d="M26.6933 68.9815C26.029 69.8713 26.3406 71.2507 27.3869 72.0687C28.4333 72.8868 29.8264 72.8271 30.4907 71.9374C31.1549 71.0476 30.8434 69.6682 29.797 68.8502C28.7507 68.0321 27.3575 68.0918 26.6933 68.9815Z" fill="#EC008C"/>
<path d="M3.25658 40.1337C8.23551 38.6946 13.2321 37.3152 18.1992 35.8224C20.0862 35.2551 21.544 34.1385 22.4669 32.6814C22.6432 32.5142 22.7784 32.2813 22.849 32.0007C23.6073 30.4481 23.8189 28.5851 23.3428 26.6145C22.7432 24.1185 21.9672 21.6523 21.2795 19.1741C20.527 16.4631 19.7746 13.7581 19.0281 11.0471C18.7283 9.96626 18.0111 8.54506 16.8002 8.31218C15.7068 8.10318 15.2189 9.21983 15.4893 10.1812C16.8472 15.0778 18.2051 19.9803 19.5689 24.8768C19.8393 25.8621 20.0921 26.7757 19.8334 27.7909C15.8538 25.5217 11.8801 23.2586 7.90044 20.9894C6.93052 20.4401 6.11932 21.0492 6.06641 22.1061C6.00763 23.3004 6.88938 24.6559 7.88869 25.2232C11.0865 27.0444 14.2784 28.8657 17.4762 30.687C17.1411 30.8661 16.7826 31.0214 16.4064 31.1408C13.8963 31.947 11.3275 32.6038 8.79395 33.3383C6.34857 34.0429 3.90908 34.7475 1.4637 35.4522C-0.758299 36.0971 1.42255 40.6532 3.25658 40.1278" fill="#EC008C"/>
<path d="M10.3634 44.0151C10.1929 45.3468 10.9394 46.547 12.0269 46.6903C13.1144 46.8336 14.1314 45.8663 14.296 44.5346C14.4664 43.203 13.7199 42.0028 12.6324 41.8595C11.5449 41.7161 10.528 42.6835 10.3634 44.0151Z" fill="#EC008C"/>
<path d="M36.5454 17.7709C37.9679 19.1503 39.6491 19.8788 41.348 19.9683C41.5772 20.046 41.8417 20.046 42.118 19.9683C43.8169 19.8609 45.5039 19.1144 46.9382 17.7112C48.7605 15.9317 50.4652 14.0149 52.2228 12.1697C54.145 10.1514 56.0731 8.13304 57.9953 6.11471C58.7654 5.30857 59.6119 3.96501 59.2004 2.7767C58.83 1.70782 57.6367 1.8392 56.9549 2.54979C53.4749 6.19831 49.9949 9.85281 46.515 13.5013C45.8155 14.2358 45.163 14.9106 44.1754 15.1912C44.1108 10.5455 44.0461 5.89974 43.9873 1.24803C43.9697 0.119434 43.0468 -0.298564 42.1239 0.185119C41.0776 0.734487 40.3722 2.18554 40.3898 3.35593C40.4427 7.08805 40.4897 10.8261 40.5426 14.5583C40.2193 14.3493 39.9137 14.1104 39.6256 13.8417C37.6858 12.0204 35.84 10.0857 33.9531 8.21664C32.1308 6.41328 30.3144 4.60395 28.4921 2.80059C26.8344 1.15846 24.054 5.36232 25.4236 6.72379C29.1328 10.4022 32.8068 14.1283 36.5571 17.7649" fill="#EC008C"/>
<path d="M27.1989 18.6785C28.4157 18.159 29.0623 16.905 28.6391 15.872C28.2158 14.8389 26.8873 14.4269 25.6705 14.9464C24.4537 15.4659 23.8071 16.7199 24.2303 17.7529C24.6536 18.786 25.9821 19.198 27.1989 18.6785Z" fill="#EC008C"/>
<path d="M84.1656 35.3686C79.3277 34.1205 74.484 32.8725 69.6462 31.6185C68.6762 31.3677 67.771 31.1289 67.0362 30.3944C70.9511 28.0178 74.8661 25.6352 78.7752 23.2586C79.7274 22.6794 79.6158 21.6523 78.7458 21.079C77.7582 20.4281 76.1711 20.5296 75.1835 21.1268C72.0386 23.0376 68.8937 24.9485 65.7488 26.8653C65.7606 26.4772 65.8135 26.083 65.9017 25.6949C66.4777 23.0735 67.1949 20.4759 67.8415 17.8724C68.4646 15.3644 69.0877 12.8504 69.7108 10.3425C70.2751 8.05541 65.3138 7.7031 64.8436 9.59006C63.5739 14.7075 62.2454 19.8131 61.0344 24.9425C60.5759 26.8892 60.7934 28.7403 61.5635 30.2809C61.6164 30.5198 61.7457 30.7527 61.9515 30.9617C62.892 32.4067 64.3674 33.5234 66.2779 34.0907C68.6997 34.8072 71.1804 35.3566 73.6258 35.9896C76.3004 36.6823 78.975 37.369 81.6497 38.0617C82.7195 38.3363 84.2831 38.414 85.0885 37.4585C85.8115 36.5987 85.1061 35.6074 84.1597 35.3626" fill="#EC008C"/>
<path d="M54.9035 14.0686C54.2392 14.9583 54.5508 16.3377 55.5971 17.1558C56.6435 17.9739 58.0366 17.9142 58.7009 17.0244C59.3651 16.1347 59.0536 14.7553 58.0072 13.9372C56.9609 13.1192 55.5677 13.1789 54.9035 14.0686Z" fill="#EC008C"/>
<path d="M82.1377 45.8663C77.1588 47.3054 72.1622 48.6848 67.195 50.1776C65.3081 50.7449 63.8503 51.8615 62.9274 53.3186C62.751 53.4858 62.6158 53.7186 62.5453 53.9993C61.787 55.5519 61.5754 57.4149 62.0515 59.3855C62.6511 61.8815 63.427 64.3477 64.1148 66.8258C64.8672 69.5369 65.6196 72.2419 66.3662 74.9469C66.666 76.0278 67.3831 77.4489 68.5941 77.6818C69.6874 77.8908 70.1753 76.7742 69.9049 75.8128C68.547 70.9162 67.1892 66.0137 65.8254 61.1172C65.555 60.1319 65.3022 59.2183 65.5609 58.2032C69.5405 60.4723 73.5142 62.7354 77.4938 65.0046C78.4637 65.5539 79.2749 64.9449 79.3279 63.8879C79.3866 62.6936 78.5049 61.3381 77.5056 60.7709C74.3078 58.9496 71.1159 57.1283 67.9181 55.307C68.2531 55.1279 68.6117 54.9726 68.9879 54.8532C71.498 54.0471 74.0668 53.3902 76.6003 52.6557C79.0398 51.9511 81.4852 51.2465 83.9306 50.5419C86.1526 49.8969 83.9717 45.3408 82.1377 45.8663Z" fill="#EC008C"/>
<path d="M75.0308 41.9849C75.2013 40.6532 74.4547 39.453 73.3673 39.3097C72.2798 39.1664 71.2628 40.1337 71.0982 41.4653C70.9278 42.797 71.6743 43.9972 72.7618 44.1405C73.8493 44.2838 74.8662 43.3165 75.0308 41.9849Z" fill="#EC008C"/>
<path d="M41.207 35.7627C41.689 36.1986 42.6002 35.6492 42.9588 35.3268C45.3395 33.183 47.7143 31.0453 50.095 28.9015C52.1701 31.0214 54.2451 33.1353 56.3201 35.2551C54.6742 37.1062 53.0283 38.9514 51.3824 40.7966C50.7299 41.531 50.0833 43.1553 50.7475 44.0689C52.6345 46.6784 54.5273 49.2879 56.4142 51.8974C54.7095 53.635 53.0107 55.3727 51.306 57.1104C48.7019 54.901 46.0919 52.6916 43.4878 50.4822C42.9882 50.0582 42.1064 50.5837 41.7361 50.9181C39.4377 52.9842 37.1392 55.0443 34.8349 57.1104C32.7893 55.0264 30.7495 52.9424 28.7039 50.8583C30.4203 49.1028 32.1427 47.3531 33.8591 45.5976C34.5939 44.8511 35.8225 42.9761 34.929 41.8714C32.8128 39.2619 30.6966 36.6524 28.5804 34.0429C30.2557 32.3351 31.9252 30.6332 33.6005 28.9254C36.134 31.2065 38.6676 33.4876 41.2011 35.7686M24.2893 53.4081C27.0579 56.2326 29.8266 59.0571 32.5953 61.8815C33.2243 62.5205 34.0296 62.2876 34.6527 61.7323L41.6244 55.4742C44.252 57.7016 46.8855 59.9349 49.5131 62.1682C49.9951 62.5742 50.918 62.0846 51.2648 61.7323C54.0335 58.9078 56.8022 56.0833 59.5709 53.2589C59.5885 53.2409 59.6061 53.217 59.6296 53.1991C59.7942 53.0319 59.9529 52.8468 60.0999 52.6438C60.6172 51.9511 61.0287 51.0793 60.8935 50.2433C60.8935 50.2433 60.8935 50.2373 60.8935 50.2314C60.8935 50.2075 60.8876 50.1836 60.8817 50.1537C60.8464 49.9268 60.77 49.7118 60.6407 49.5327C58.7244 46.8874 56.8139 44.242 54.8976 41.5967C56.6023 39.6859 58.3011 37.7691 60.0058 35.8582C60.5702 35.2252 61.4108 33.3681 60.6407 32.5859C57.872 29.7614 55.1033 26.937 52.3347 24.1125C51.7057 23.4735 50.9003 23.7064 50.2772 24.2618C47.8789 26.4174 45.4864 28.5791 43.0881 30.7348C40.531 28.4298 37.974 26.1308 35.4169 23.8259C34.9466 23.4019 34.0002 23.9154 33.6652 24.2618C30.8965 27.0862 28.1278 29.9107 25.3591 32.7292C24.6243 33.4756 23.3958 35.3506 24.2893 36.4553C26.4054 39.0648 28.5216 41.6743 30.6378 44.2838C28.8802 46.0812 27.1167 47.8727 25.3591 49.67C24.7066 50.3329 23.3076 52.393 24.2893 53.3962" fill="#EC008C"/>
<path d="M39.3728 43.3822C38.7909 43.9733 38.2089 44.5705 37.627 45.1616C36.8451 45.9558 35.981 47.2875 36.3749 48.4817C36.7276 49.5566 37.9268 49.4431 38.6145 48.7385C39.6138 47.7174 40.6131 46.6963 41.6183 45.6752C42.6705 46.7441 43.7169 47.8189 44.7691 48.8878C46.4033 50.5538 49.2425 46.3858 47.8905 45.0124C46.9558 44.0569 46.0153 43.1015 45.0807 42.1461C45.6626 41.5549 46.2446 40.9578 46.8265 40.3666C47.6083 39.5724 48.4724 38.2408 48.0786 37.0465C47.7259 35.9717 46.5267 36.0851 45.839 36.7898C44.8396 37.8109 43.8403 38.832 42.8351 39.8531C41.7829 38.7782 40.7366 37.7093 39.6844 36.6405C38.0502 34.9744 35.211 39.1425 36.563 40.5159C37.4976 41.4713 38.4382 42.4267 39.3728 43.3822Z" fill="#EC008C"/>
</g>
<defs>
<clipPath id="clip0_49_3029">
<rect width="282" height="86" fill="white"/>
</clipPath>
</defs>
</svg>
