<svg width="400" height="400" viewBox="0 0 400 400" fill="none" xmlns="http://www.w3.org/2000/svg">
  <!-- Hlavné ramená vločky -->
  <line x1="200" y1="20" x2="200" y2="380" stroke="#d1d5db" stroke-width="18" stroke-linecap="round"/>
  <line x1="44" y1="110" x2="356" y2="290" stroke="#d1d5db" stroke-width="18" stroke-linecap="round"/>
  <line x1="356" y1="110" x2="44" y2="290" stroke="#d1d5db" stroke-width="18" stroke-linecap="round"/>
  <!-- Šípky hore -->
  <line x1="200" y1="80" x2="160" y2="50" stroke="#d1d5db" stroke-width="14" stroke-linecap="round"/>
  <line x1="200" y1="80" x2="240" y2="50" stroke="#d1d5db" stroke-width="14" stroke-linecap="round"/>
  <!-- Šípky dole -->
  <line x1="200" y1="320" x2="160" y2="350" stroke="#d1d5db" stroke-width="14" stroke-linecap="round"/>
  <line x1="200" y1="320" x2="240" y2="350" stroke="#d1d5db" stroke-width="14" stroke-linecap="round"/>
  <!-- Šípky vľavo hore -->
  <line x1="100" y1="152" x2="60" y2="120" stroke="#d1d5db" stroke-width="14" stroke-linecap="round"/>
  <line x1="100" y1="152" x2="70" y2="180" stroke="#d1d5db" stroke-width="14" stroke-linecap="round"/>
  <!-- Šípky vpravo hore -->
  <line x1="300" y1="152" x2="340" y2="120" stroke="#d1d5db" stroke-width="14" stroke-linecap="round"/>
  <line x1="300" y1="152" x2="330" y2="180" stroke="#d1d5db" stroke-width="14" stroke-linecap="round"/>
  <!-- Šípky vľavo dole -->
  <line x1="100" y1="248" x2="70" y2="220" stroke="#d1d5db" stroke-width="14" stroke-linecap="round"/>
  <line x1="100" y1="248" x2="60" y2="280" stroke="#d1d5db" stroke-width="14" stroke-linecap="round"/>
  <!-- Šípky vpravo dole -->
  <line x1="300" y1="248" x2="330" y2="220" stroke="#d1d5db" stroke-width="14" stroke-linecap="round"/>
  <line x1="300" y1="248" x2="340" y2="280" stroke="#d1d5db" stroke-width="14" stroke-linecap="round"/>
  <!-- Stredový kruh -->
  <circle cx="200" cy="200" r="50" fill="#d1d5db"/>
</svg>
